<?xml version="1.0" standalone="no"?>
<!DOCTYPE svg PUBLIC "-//W3C//DTD SVG 20010904//EN"
 "http://www.w3.org/TR/2001/REC-SVG-20010904/DTD/svg10.dtd">
<svg version="1.0" xmlns="http://www.w3.org/2000/svg"
 width="500.000000pt" height="500.000000pt" viewBox="0 0 500.000000 500.000000"
 preserveAspectRatio="xMidYMid meet">

<g transform="translate(0.000000,500.000000) scale(0.100000,-0.100000)"
fill="#000000" stroke="none">
<path d="M0 2695 l0 -2305 120 0 120 0 0 145 0 145 120 0 120 0 0 140 0 140
2020 0 2020 0 0 -140 0 -140 120 0 120 0 0 -145 0 -145 120 0 120 0 0 2305 0
2305 -2500 0 -2500 0 0 -2305z m3628 1663 l1102 -521 0 -88 0 -89 -2230 0
-2231 0 3 90 3 90 1110 525 c611 288 1117 522 1125 519 8 -3 511 -240 1118
-526z m672 -913 l0 -145 -1800 0 -1800 0 0 145 0 145 1800 0 1800 0 0 -145z
m-3030 -222 c0 -5 14 -467 30 -1028 16 -561 30 -1053 30 -1092 l0 -73 -260 0
c-201 0 -260 3 -260 13 -2 56 52 2165 55 2175 3 9 53 12 205 12 110 0 200 -3
200 -7z m951 5 c3 -11 64 -2185 62 -2190 -2 -5 -119 -8 -259 -8 -195 0 -256 3
-259 12 -3 10 50 2176 54 2186 1 1 91 2 201 2 110 0 200 -1 201 -2z m953 -10
c6 -20 64 -2172 59 -2180 -2 -5 -118 -8 -258 -8 -140 0 -256 3 -258 8 -3 5 40
1770 52 2175 1 16 17 17 201 17 152 0 202 -3 204 -12z m951 0 c3 -10 66 -2098
65 -2175 0 -10 -59 -13 -260 -13 l-260 0 0 88 c0 158 50 2087 55 2100 3 9 53
12 200 12 148 0 197 -3 200 -12z"/>
<path d="M0 55 l0 -55 2500 0 2500 0 0 55 0 55 -2500 0 -2500 0 0 -55z"/>
</g>
</svg>
